Coordinates
version=1
nRows=13
nColumns=22
inDegrees=yes

Units are S.I. units (second, meters, Newtons, ...)
If the header above contains a line with 'inDegrees', this indicates whether rotational values are in degrees (yes) or radians (no).

endheader
time	pelvis_tilt	pelvis_list	pelvis_rotation	pelvis_tx	pelvis_ty	pelvis_tz	hip_flexion_r	hip_adduction_r	hip_rotation_r	knee_angle_r	ankle_angle_r	subtalar_angle_r	hip_flexion_l	hip_adduction_l	hip_rotation_l	knee_angle_l	ankle_angle_l	subtalar_angle_l	lumbar_extension	lumbar_bending	lumbar_rotation
      2.76000000	     -5.02269636	     -7.95225704	     -0.02915094	      0.18892601	      0.94051546	     -0.26539649	      6.57997877	      9.06430713	     -3.82940179	    -28.61680021	     19.04863721	      4.71070584	     31.65259250	    -10.39043772	      8.28627581	    -15.22891897	      6.11303331	     -0.28747683	     -2.30143579	      6.93022206	      1.18277953
      2.77000000	     -4.95499613	     -7.84973701	      0.10575869	      0.18075797	      0.94167552	     -0.26401067	      7.01367079	      9.06654327	     -4.05451398	    -28.52367708	     18.87447507	      4.28303916	     31.88419076	    -10.15814631	      8.18278434	    -16.39483334	      6.13459692	     -0.06843892	     -2.40908902	      6.84543577	      0.91918401
      2.78000000	     -4.83629382	     -7.70171960	      0.27812412	      0.17284273	      0.94302449	     -0.26282914	      7.33659747	      9.00887794	     -4.28244567	    -28.35412566	     18.67519801	      3.89248918	     32.05668102	     -9.84220520	      8.06415234	    -17.77459347	      6.19850497	      0.16013775	     -2.54355746	      6.71458067	      0.65368522
      2.79000000	     -4.67775895	     -7.52851075	      0.47080982	      0.16509662	      0.94452173	     -0.26181089	      7.58631329	      8.91544317	     -4.50606098	    -28.14733828	     18.43179947	      3.47173490	     32.16777734	     -9.47636814	      7.94038144	    -19.31682626	      6.32420019	      0.45584235	     -2.70516484	      6.56239849	      0.37065113
      2.80000000	     -4.48301375	     -7.32663833	      0.67756191	      0.15753682	      0.94615630	     -0.26093672	      7.74723701	      8.78163463	     -4.72281500	    -27.87458897	     18.17564374	      3.12543005	     32.19228089	     -9.06439540	      7.82324138	    -20.95757148	      6.51098999	      0.74999009	     -2.88638481	      6.38159929	      0.09764163
      2.81000000	     -4.27816306	     -7.11034982	      0.88214731	      0.15012976	      0.94787233	     -0.26017982	      7.85011354	      8.62385459	     -4.92457640	    -27.54011293	     17.90618119	      2.84287773	     32.14621646	     -8.62820566	      7.72454709	    -22.65523753	      6.76074944	      1.04196566	     -3.06151227	      6.18955423	     -0.14811505
      2.82000000	     -4.07803412	     -6.90190623	      1.05096410	      0.14281533	      0.94962287	     -0.25945805	      7.93445015	      8.47247409	     -5.09237918	    -27.18109089	     17.58506903	      2.50376170	     32.04757551	     -8.21380276	      7.61537888	    -24.39120549	      7.05897155	      1.47078795	     -3.22424206	      6.00902511	     -0.32714134
      2.83000000	     -3.88146674	     -6.68976487	      1.24438251	      0.13563082	      0.95138509	     -0.25886883	      7.97712542	      8.30090536	     -5.28347785	    -26.76331504	     17.29365588	      2.35165376	     31.87704410	     -7.76932614	      7.59806628	    -26.10763656	      7.38315069	      1.71611623	     -3.36299878	      5.82832287	     -0.53971939
      2.84000000	     -3.70602209	     -6.50735411	      1.37823739	      0.12848536	      0.95311476	     -0.25824222	      8.03257910	      8.16563304	     -5.41510048	    -26.34085239	     16.93788836	      2.11942218	     31.67197746	     -7.38731944	      7.55833046	    -27.82576356	      7.73716431	      2.15257347	     -3.48002502	      5.67935171	     -0.67440426
      2.85000000	     -3.55884890	     -6.34476927	      1.49295134	      0.12143911	      0.95477976	     -0.25765742	      8.08128675	      8.04362796	     -5.53485976	    -25.87209804	     16.59518540	      1.97846294	     31.42612139	     -7.03090853	      7.55350955	    -29.50735915	      8.12016487	      2.47049592	     -3.55187286	      5.55233002	     -0.78062601
      2.86000000	     -3.43647117	     -6.21754938	      1.57529314	      0.11447469	      0.95636214	     -0.25707355	      8.12718529	      7.95493411	     -5.63762988	    -25.36642137	     16.24783819	      1.87793988	     31.14447557	     -6.73089976	      7.55607461	    -31.15332535	      8.52703767	      2.75022589	     -3.58635681	      5.46364161	     -0.83674588
      2.87000000	     -3.34080730	     -6.09942820	      1.60751096	      0.10752476	      0.95784040	     -0.25646060	      8.20808059	      7.87511124	     -5.69800959	    -24.88446116	     15.87799693	      1.74254411	     30.83214044	     -6.47603535	      7.52804233	    -32.75999140	      8.92860025	      3.15046377	     -3.59473388	      5.37979482	     -0.86030511
      2.88000000	     -3.25272242	     -6.03968001	      1.62728659	      0.10064619	      0.95921616	     -0.25585092	      8.26981223	      7.85703817	     -5.73635775	    -24.36358487	     15.50997202	      1.69706629	     30.48205777	     -6.30035382	      7.51040879	    -34.32910180	      9.31991770	      3.37874250	     -3.58510387	      5.35925701	     -0.88751724
